<mxfile host="app.diagrams.net" modified="2024-07-30T17:23:20.886Z" agent="Mozilla/5.0 (Windows NT 10.0; Win64; x64) AppleWebKit/537.36 (KHTML, like Gecko) Chrome/127.0.0.0 Safari/537.36 Edg/127.0.0.0" etag="DAdAnNd5NxGQXv9afSa1" version="24.7.1" type="github">
  <diagram name="第 1 页" id="sJesDhHp2YxNsY8iuc-c">
    <mxGraphModel dx="1214" dy="770" grid="1" gridSize="10" guides="1" tooltips="1" connect="1" arrows="1" fold="1" page="1" pageScale="1" pageWidth="827" pageHeight="1169" math="0" shadow="0">
      <root>
        <mxCell id="0" />
        <mxCell id="1" parent="0" />
        <mxCell id="Er-28kLMQKc3rQyDsDdn-1" value="" style="ellipse;whiteSpace=wrap;html=1;aspect=fixed;" vertex="1" parent="1">
          <mxGeometry x="140" y="460" width="80" height="80" as="geometry" />
        </mxCell>
        <mxCell id="Er-28kLMQKc3rQyDsDdn-2" value="" style="ellipse;whiteSpace=wrap;html=1;aspect=fixed;" vertex="1" parent="1">
          <mxGeometry x="140" y="620" width="80" height="80" as="geometry" />
        </mxCell>
        <mxCell id="Er-28kLMQKc3rQyDsDdn-34" style="edgeStyle=orthogonalEdgeStyle;rounded=0;orthogonalLoop=1;jettySize=auto;html=1;exitX=1;exitY=0.5;exitDx=0;exitDy=0;" edge="1" parent="1" source="Er-28kLMQKc3rQyDsDdn-4">
          <mxGeometry relative="1" as="geometry">
            <mxPoint x="590" y="560" as="targetPoint" />
          </mxGeometry>
        </mxCell>
        <mxCell id="Er-28kLMQKc3rQyDsDdn-4" value="" style="ellipse;whiteSpace=wrap;html=1;aspect=fixed;" vertex="1" parent="1">
          <mxGeometry x="360" y="520" width="80" height="80" as="geometry" />
        </mxCell>
        <mxCell id="Er-28kLMQKc3rQyDsDdn-6" value="" style="ellipse;whiteSpace=wrap;html=1;aspect=fixed;" vertex="1" parent="1">
          <mxGeometry x="160" y="120" width="80" height="80" as="geometry" />
        </mxCell>
        <mxCell id="Er-28kLMQKc3rQyDsDdn-8" value="" style="endArrow=classic;html=1;rounded=0;entryX=0;entryY=0.5;entryDx=0;entryDy=0;" edge="1" parent="1" target="Er-28kLMQKc3rQyDsDdn-6">
          <mxGeometry width="50" height="50" relative="1" as="geometry">
            <mxPoint x="80" y="160" as="sourcePoint" />
            <mxPoint x="70" y="120" as="targetPoint" />
          </mxGeometry>
        </mxCell>
        <mxCell id="Er-28kLMQKc3rQyDsDdn-9" value="a_{i-1}" style="text;html=1;align=center;verticalAlign=middle;whiteSpace=wrap;rounded=0;" vertex="1" parent="1">
          <mxGeometry x="90" y="130" width="60" height="30" as="geometry" />
        </mxCell>
        <mxCell id="Er-28kLMQKc3rQyDsDdn-10" value="" style="endArrow=classic;html=1;rounded=0;entryX=0;entryY=0.5;entryDx=0;entryDy=0;" edge="1" parent="1">
          <mxGeometry width="50" height="50" relative="1" as="geometry">
            <mxPoint x="240" y="160" as="sourcePoint" />
            <mxPoint x="320" y="160" as="targetPoint" />
          </mxGeometry>
        </mxCell>
        <mxCell id="Er-28kLMQKc3rQyDsDdn-11" value="z_{i}" style="text;html=1;align=center;verticalAlign=middle;whiteSpace=wrap;rounded=0;" vertex="1" parent="1">
          <mxGeometry x="250" y="130" width="60" height="30" as="geometry" />
        </mxCell>
        <mxCell id="Er-28kLMQKc3rQyDsDdn-12" value="WEIGHT" style="text;html=1;align=center;verticalAlign=middle;whiteSpace=wrap;rounded=0;" vertex="1" parent="1">
          <mxGeometry x="160" y="60" width="60" height="30" as="geometry" />
        </mxCell>
        <mxCell id="Er-28kLMQKc3rQyDsDdn-28" style="rounded=0;orthogonalLoop=1;jettySize=auto;html=1;exitX=1;exitY=0.5;exitDx=0;exitDy=0;entryX=0;entryY=0.5;entryDx=0;entryDy=0;" edge="1" parent="1" source="Er-28kLMQKc3rQyDsDdn-1" target="Er-28kLMQKc3rQyDsDdn-4">
          <mxGeometry relative="1" as="geometry" />
        </mxCell>
        <mxCell id="Er-28kLMQKc3rQyDsDdn-29" style="rounded=0;orthogonalLoop=1;jettySize=auto;html=1;exitX=1;exitY=0.5;exitDx=0;exitDy=0;entryX=0;entryY=0.5;entryDx=0;entryDy=0;" edge="1" parent="1" source="Er-28kLMQKc3rQyDsDdn-2" target="Er-28kLMQKc3rQyDsDdn-4">
          <mxGeometry relative="1" as="geometry" />
        </mxCell>
        <mxCell id="Er-28kLMQKc3rQyDsDdn-32" value="a1" style="text;html=1;align=center;verticalAlign=middle;whiteSpace=wrap;rounded=0;" vertex="1" parent="1">
          <mxGeometry x="250" y="490" width="60" height="30" as="geometry" />
        </mxCell>
        <mxCell id="Er-28kLMQKc3rQyDsDdn-33" value="a2" style="text;html=1;align=center;verticalAlign=middle;whiteSpace=wrap;rounded=0;" vertex="1" parent="1">
          <mxGeometry x="250" y="580" width="60" height="30" as="geometry" />
        </mxCell>
        <mxCell id="Er-28kLMQKc3rQyDsDdn-36" value="z=a1*w1+a2*w2+b" style="text;html=1;align=center;verticalAlign=middle;whiteSpace=wrap;rounded=0;" vertex="1" parent="1">
          <mxGeometry x="450" y="520" width="130" height="30" as="geometry" />
        </mxCell>
        <mxCell id="Er-28kLMQKc3rQyDsDdn-38" style="edgeStyle=orthogonalEdgeStyle;rounded=0;orthogonalLoop=1;jettySize=auto;html=1;exitX=0;exitY=0.5;exitDx=0;exitDy=0;" edge="1" parent="1">
          <mxGeometry relative="1" as="geometry">
            <mxPoint x="540" y="159.70999999999998" as="targetPoint" />
            <mxPoint x="620" y="159.70999999999998" as="sourcePoint" />
          </mxGeometry>
        </mxCell>
        <mxCell id="Er-28kLMQKc3rQyDsDdn-39" style="edgeStyle=orthogonalEdgeStyle;rounded=0;orthogonalLoop=1;jettySize=auto;html=1;exitX=0;exitY=0.5;exitDx=0;exitDy=0;" edge="1" parent="1" source="Er-28kLMQKc3rQyDsDdn-37">
          <mxGeometry relative="1" as="geometry">
            <mxPoint x="380" y="160" as="targetPoint" />
          </mxGeometry>
        </mxCell>
        <mxCell id="Er-28kLMQKc3rQyDsDdn-37" value="" style="ellipse;whiteSpace=wrap;html=1;aspect=fixed;" vertex="1" parent="1">
          <mxGeometry x="460" y="120" width="80" height="80" as="geometry" />
        </mxCell>
        <mxCell id="Er-28kLMQKc3rQyDsDdn-40" value="δ_{i}" style="text;html=1;align=center;verticalAlign=middle;whiteSpace=wrap;rounded=0;" vertex="1" parent="1">
          <mxGeometry x="560" y="120" width="60" height="30" as="geometry" />
        </mxCell>
        <mxCell id="Er-28kLMQKc3rQyDsDdn-41" value="(WEIGHT)T" style="text;html=1;align=center;verticalAlign=middle;whiteSpace=wrap;rounded=0;" vertex="1" parent="1">
          <mxGeometry x="430" y="70" width="80" height="30" as="geometry" />
        </mxCell>
        <mxCell id="Er-28kLMQKc3rQyDsDdn-42" value="" style="shape=table;startSize=0;container=1;collapsible=0;childLayout=tableLayout;fontSize=16;" vertex="1" parent="1">
          <mxGeometry x="520" y="50" width="80" height="53" as="geometry" />
        </mxCell>
        <mxCell id="Er-28kLMQKc3rQyDsDdn-43" value="" style="shape=tableRow;horizontal=0;startSize=0;swimlaneHead=0;swimlaneBody=0;strokeColor=inherit;top=0;left=0;bottom=0;right=0;collapsible=0;dropTarget=0;fillColor=none;points=[[0,0.5],[1,0.5]];portConstraint=eastwest;fontSize=16;" vertex="1" parent="Er-28kLMQKc3rQyDsDdn-42">
          <mxGeometry width="80" height="20" as="geometry" />
        </mxCell>
        <mxCell id="Er-28kLMQKc3rQyDsDdn-44" value="" style="shape=partialRectangle;html=1;whiteSpace=wrap;connectable=0;strokeColor=inherit;overflow=hidden;fillColor=none;top=0;left=0;bottom=0;right=0;pointerEvents=1;fontSize=16;" vertex="1" parent="Er-28kLMQKc3rQyDsDdn-43">
          <mxGeometry width="27" height="20" as="geometry">
            <mxRectangle width="27" height="20" as="alternateBounds" />
          </mxGeometry>
        </mxCell>
        <mxCell id="Er-28kLMQKc3rQyDsDdn-45" value="" style="shape=partialRectangle;html=1;whiteSpace=wrap;connectable=0;strokeColor=inherit;overflow=hidden;fillColor=none;top=0;left=0;bottom=0;right=0;pointerEvents=1;fontSize=16;" vertex="1" parent="Er-28kLMQKc3rQyDsDdn-43">
          <mxGeometry x="27" width="26" height="20" as="geometry">
            <mxRectangle width="26" height="20" as="alternateBounds" />
          </mxGeometry>
        </mxCell>
        <mxCell id="Er-28kLMQKc3rQyDsDdn-46" value="" style="shape=partialRectangle;html=1;whiteSpace=wrap;connectable=0;strokeColor=inherit;overflow=hidden;fillColor=none;top=0;left=0;bottom=0;right=0;pointerEvents=1;fontSize=16;" vertex="1" parent="Er-28kLMQKc3rQyDsDdn-43">
          <mxGeometry x="53" width="27" height="20" as="geometry">
            <mxRectangle width="27" height="20" as="alternateBounds" />
          </mxGeometry>
        </mxCell>
        <mxCell id="Er-28kLMQKc3rQyDsDdn-47" value="" style="shape=tableRow;horizontal=0;startSize=0;swimlaneHead=0;swimlaneBody=0;strokeColor=inherit;top=0;left=0;bottom=0;right=0;collapsible=0;dropTarget=0;fillColor=none;points=[[0,0.5],[1,0.5]];portConstraint=eastwest;fontSize=16;" vertex="1" parent="Er-28kLMQKc3rQyDsDdn-42">
          <mxGeometry y="20" width="80" height="16" as="geometry" />
        </mxCell>
        <mxCell id="Er-28kLMQKc3rQyDsDdn-48" value="" style="shape=partialRectangle;html=1;whiteSpace=wrap;connectable=0;strokeColor=inherit;overflow=hidden;fillColor=none;top=0;left=0;bottom=0;right=0;pointerEvents=1;fontSize=16;" vertex="1" parent="Er-28kLMQKc3rQyDsDdn-47">
          <mxGeometry width="27" height="16" as="geometry">
            <mxRectangle width="27" height="16" as="alternateBounds" />
          </mxGeometry>
        </mxCell>
        <mxCell id="Er-28kLMQKc3rQyDsDdn-49" value="" style="shape=partialRectangle;html=1;whiteSpace=wrap;connectable=0;strokeColor=inherit;overflow=hidden;fillColor=none;top=0;left=0;bottom=0;right=0;pointerEvents=1;fontSize=16;" vertex="1" parent="Er-28kLMQKc3rQyDsDdn-47">
          <mxGeometry x="27" width="26" height="16" as="geometry">
            <mxRectangle width="26" height="16" as="alternateBounds" />
          </mxGeometry>
        </mxCell>
        <mxCell id="Er-28kLMQKc3rQyDsDdn-50" value="" style="shape=partialRectangle;html=1;whiteSpace=wrap;connectable=0;strokeColor=inherit;overflow=hidden;fillColor=none;top=0;left=0;bottom=0;right=0;pointerEvents=1;fontSize=16;" vertex="1" parent="Er-28kLMQKc3rQyDsDdn-47">
          <mxGeometry x="53" width="27" height="16" as="geometry">
            <mxRectangle width="27" height="16" as="alternateBounds" />
          </mxGeometry>
        </mxCell>
        <mxCell id="Er-28kLMQKc3rQyDsDdn-51" value="" style="shape=tableRow;horizontal=0;startSize=0;swimlaneHead=0;swimlaneBody=0;strokeColor=inherit;top=0;left=0;bottom=0;right=0;collapsible=0;dropTarget=0;fillColor=none;points=[[0,0.5],[1,0.5]];portConstraint=eastwest;fontSize=16;" vertex="1" parent="Er-28kLMQKc3rQyDsDdn-42">
          <mxGeometry y="36" width="80" height="17" as="geometry" />
        </mxCell>
        <mxCell id="Er-28kLMQKc3rQyDsDdn-52" value="" style="shape=partialRectangle;html=1;whiteSpace=wrap;connectable=0;strokeColor=inherit;overflow=hidden;fillColor=none;top=0;left=0;bottom=0;right=0;pointerEvents=1;fontSize=16;" vertex="1" parent="Er-28kLMQKc3rQyDsDdn-51">
          <mxGeometry width="27" height="17" as="geometry">
            <mxRectangle width="27" height="17" as="alternateBounds" />
          </mxGeometry>
        </mxCell>
        <mxCell id="Er-28kLMQKc3rQyDsDdn-53" value="" style="shape=partialRectangle;html=1;whiteSpace=wrap;connectable=0;strokeColor=inherit;overflow=hidden;fillColor=none;top=0;left=0;bottom=0;right=0;pointerEvents=1;fontSize=16;" vertex="1" parent="Er-28kLMQKc3rQyDsDdn-51">
          <mxGeometry x="27" width="26" height="17" as="geometry">
            <mxRectangle width="26" height="17" as="alternateBounds" />
          </mxGeometry>
        </mxCell>
        <mxCell id="Er-28kLMQKc3rQyDsDdn-54" value="" style="shape=partialRectangle;html=1;whiteSpace=wrap;connectable=0;strokeColor=inherit;overflow=hidden;fillColor=none;top=0;left=0;bottom=0;right=0;pointerEvents=1;fontSize=16;" vertex="1" parent="Er-28kLMQKc3rQyDsDdn-51">
          <mxGeometry x="53" width="27" height="17" as="geometry">
            <mxRectangle width="27" height="17" as="alternateBounds" />
          </mxGeometry>
        </mxCell>
        <mxCell id="Er-28kLMQKc3rQyDsDdn-55" value="δ_{i-1}" style="text;html=1;align=center;verticalAlign=middle;whiteSpace=wrap;rounded=0;" vertex="1" parent="1">
          <mxGeometry x="390" y="120" width="60" height="30" as="geometry" />
        </mxCell>
        <mxCell id="Er-28kLMQKc3rQyDsDdn-61" value="ker_1" style="whiteSpace=wrap;html=1;aspect=fixed;" vertex="1" parent="1">
          <mxGeometry x="480" y="440" width="40" height="40" as="geometry" />
        </mxCell>
        <mxCell id="Er-28kLMQKc3rQyDsDdn-63" value="ker_2" style="whiteSpace=wrap;html=1;aspect=fixed;" vertex="1" parent="1">
          <mxGeometry x="520" y="440" width="40" height="40" as="geometry" />
        </mxCell>
        <mxCell id="Er-28kLMQKc3rQyDsDdn-65" style="edgeStyle=orthogonalEdgeStyle;rounded=0;orthogonalLoop=1;jettySize=auto;html=1;exitX=0.5;exitY=1;exitDx=0;exitDy=0;entryX=0.385;entryY=-0.058;entryDx=0;entryDy=0;entryPerimeter=0;" edge="1" parent="1" source="Er-28kLMQKc3rQyDsDdn-61" target="Er-28kLMQKc3rQyDsDdn-36">
          <mxGeometry relative="1" as="geometry" />
        </mxCell>
        <mxCell id="Er-28kLMQKc3rQyDsDdn-67" style="edgeStyle=orthogonalEdgeStyle;rounded=0;orthogonalLoop=1;jettySize=auto;html=1;entryX=0.69;entryY=-0.072;entryDx=0;entryDy=0;entryPerimeter=0;" edge="1" parent="1" source="Er-28kLMQKc3rQyDsDdn-63" target="Er-28kLMQKc3rQyDsDdn-36">
          <mxGeometry relative="1" as="geometry" />
        </mxCell>
        <mxCell id="Er-28kLMQKc3rQyDsDdn-101" style="edgeStyle=orthogonalEdgeStyle;rounded=0;orthogonalLoop=1;jettySize=auto;html=1;exitX=0;exitY=0.5;exitDx=0;exitDy=0;" edge="1" parent="1">
          <mxGeometry relative="1" as="geometry">
            <mxPoint x="40" y="799.55" as="targetPoint" />
            <mxPoint x="140" y="799.55" as="sourcePoint" />
          </mxGeometry>
        </mxCell>
        <mxCell id="Er-28kLMQKc3rQyDsDdn-68" value="" style="ellipse;whiteSpace=wrap;html=1;aspect=fixed;" vertex="1" parent="1">
          <mxGeometry x="140" y="760" width="80" height="80" as="geometry" />
        </mxCell>
        <mxCell id="Er-28kLMQKc3rQyDsDdn-105" style="edgeStyle=orthogonalEdgeStyle;rounded=0;orthogonalLoop=1;jettySize=auto;html=1;exitX=0;exitY=0.5;exitDx=0;exitDy=0;" edge="1" parent="1" source="Er-28kLMQKc3rQyDsDdn-69">
          <mxGeometry relative="1" as="geometry">
            <mxPoint x="40" y="960" as="targetPoint" />
          </mxGeometry>
        </mxCell>
        <mxCell id="Er-28kLMQKc3rQyDsDdn-69" value="" style="ellipse;whiteSpace=wrap;html=1;aspect=fixed;" vertex="1" parent="1">
          <mxGeometry x="140" y="920" width="80" height="80" as="geometry" />
        </mxCell>
        <mxCell id="Er-28kLMQKc3rQyDsDdn-81" style="edgeStyle=orthogonalEdgeStyle;rounded=0;orthogonalLoop=1;jettySize=auto;html=1;" edge="1" parent="1">
          <mxGeometry relative="1" as="geometry">
            <mxPoint x="440" y="859.75" as="targetPoint" />
            <mxPoint x="560" y="860" as="sourcePoint" />
          </mxGeometry>
        </mxCell>
        <mxCell id="Er-28kLMQKc3rQyDsDdn-82" style="rounded=0;orthogonalLoop=1;jettySize=auto;html=1;exitX=0;exitY=0.5;exitDx=0;exitDy=0;entryX=1;entryY=0.5;entryDx=0;entryDy=0;" edge="1" parent="1" source="Er-28kLMQKc3rQyDsDdn-71" target="Er-28kLMQKc3rQyDsDdn-68">
          <mxGeometry relative="1" as="geometry" />
        </mxCell>
        <mxCell id="Er-28kLMQKc3rQyDsDdn-71" value="" style="ellipse;whiteSpace=wrap;html=1;aspect=fixed;" vertex="1" parent="1">
          <mxGeometry x="360" y="820" width="80" height="80" as="geometry" />
        </mxCell>
        <mxCell id="Er-28kLMQKc3rQyDsDdn-76" value="δ_{i+1}" style="text;html=1;align=center;verticalAlign=middle;whiteSpace=wrap;rounded=0;" vertex="1" parent="1">
          <mxGeometry x="435" y="830" width="130" height="30" as="geometry" />
        </mxCell>
        <mxCell id="Er-28kLMQKc3rQyDsDdn-77" value="ker_1" style="whiteSpace=wrap;html=1;aspect=fixed;" vertex="1" parent="1">
          <mxGeometry x="290" y="730" width="40" height="40" as="geometry" />
        </mxCell>
        <mxCell id="Er-28kLMQKc3rQyDsDdn-78" value="ker_2" style="whiteSpace=wrap;html=1;aspect=fixed;" vertex="1" parent="1">
          <mxGeometry x="310" y="970" width="40" height="40" as="geometry" />
        </mxCell>
        <mxCell id="Er-28kLMQKc3rQyDsDdn-83" style="rounded=0;orthogonalLoop=1;jettySize=auto;html=1;exitX=0;exitY=0.5;exitDx=0;exitDy=0;entryX=1.013;entryY=0.43;entryDx=0;entryDy=0;entryPerimeter=0;" edge="1" parent="1" source="Er-28kLMQKc3rQyDsDdn-71" target="Er-28kLMQKc3rQyDsDdn-69">
          <mxGeometry relative="1" as="geometry" />
        </mxCell>
        <mxCell id="Er-28kLMQKc3rQyDsDdn-84" value="δ_{i_1}=W1^T * δ_{i+1}" style="text;html=1;align=center;verticalAlign=middle;whiteSpace=wrap;rounded=0;" vertex="1" parent="1">
          <mxGeometry x="230" y="800" width="220" height="30" as="geometry" />
        </mxCell>
        <mxCell id="Er-28kLMQKc3rQyDsDdn-85" value="δ_{i_2}=W2^T * δ_{i+1}" style="text;html=1;align=center;verticalAlign=middle;whiteSpace=wrap;rounded=0;" vertex="1" parent="1">
          <mxGeometry x="230" y="910" width="220" height="30" as="geometry" />
        </mxCell>
        <mxCell id="Er-28kLMQKc3rQyDsDdn-86" style="edgeStyle=orthogonalEdgeStyle;rounded=0;orthogonalLoop=1;jettySize=auto;html=1;exitX=0.5;exitY=0;exitDx=0;exitDy=0;entryX=0.445;entryY=1.015;entryDx=0;entryDy=0;entryPerimeter=0;" edge="1" parent="1" source="Er-28kLMQKc3rQyDsDdn-78" target="Er-28kLMQKc3rQyDsDdn-85">
          <mxGeometry relative="1" as="geometry" />
        </mxCell>
        <mxCell id="Er-28kLMQKc3rQyDsDdn-87" style="edgeStyle=orthogonalEdgeStyle;rounded=0;orthogonalLoop=1;jettySize=auto;html=1;exitX=0.5;exitY=1;exitDx=0;exitDy=0;entryX=0.36;entryY=-0.035;entryDx=0;entryDy=0;entryPerimeter=0;" edge="1" parent="1" source="Er-28kLMQKc3rQyDsDdn-77" target="Er-28kLMQKc3rQyDsDdn-84">
          <mxGeometry relative="1" as="geometry" />
        </mxCell>
        <mxCell id="Er-28kLMQKc3rQyDsDdn-88" value="" style="ellipse;whiteSpace=wrap;html=1;aspect=fixed;" vertex="1" parent="1">
          <mxGeometry x="160" y="1240" width="80" height="80" as="geometry" />
        </mxCell>
        <mxCell id="Er-28kLMQKc3rQyDsDdn-91" style="rounded=0;orthogonalLoop=1;jettySize=auto;html=1;exitX=0;exitY=0.5;exitDx=0;exitDy=0;entryX=1;entryY=0.5;entryDx=0;entryDy=0;" edge="1" parent="1" source="Er-28kLMQKc3rQyDsDdn-92" target="Er-28kLMQKc3rQyDsDdn-88">
          <mxGeometry relative="1" as="geometry" />
        </mxCell>
        <mxCell id="Er-28kLMQKc3rQyDsDdn-92" value="" style="ellipse;whiteSpace=wrap;html=1;aspect=fixed;" vertex="1" parent="1">
          <mxGeometry x="400" y="1240" width="80" height="80" as="geometry" />
        </mxCell>
        <mxCell id="Er-28kLMQKc3rQyDsDdn-97" value="W1" style="text;html=1;align=center;verticalAlign=middle;whiteSpace=wrap;rounded=0;" vertex="1" parent="1">
          <mxGeometry x="300" y="1090" width="45" height="30" as="geometry" />
        </mxCell>
        <mxCell id="Er-28kLMQKc3rQyDsDdn-102" value="δ_{i_1}" style="text;html=1;align=center;verticalAlign=middle;whiteSpace=wrap;rounded=0;" vertex="1" parent="1">
          <mxGeometry x="30" y="770" width="150" height="30" as="geometry" />
        </mxCell>
        <mxCell id="Er-28kLMQKc3rQyDsDdn-104" value="δ_{i_2}" style="text;html=1;align=center;verticalAlign=middle;whiteSpace=wrap;rounded=0;" vertex="1" parent="1">
          <mxGeometry x="40" y="920" width="150" height="30" as="geometry" />
        </mxCell>
        <mxCell id="Er-28kLMQKc3rQyDsDdn-107" style="rounded=0;orthogonalLoop=1;jettySize=auto;html=1;exitX=0;exitY=0.5;exitDx=0;exitDy=0;entryX=1;entryY=0.5;entryDx=0;entryDy=0;" edge="1" parent="1" source="Er-28kLMQKc3rQyDsDdn-106" target="Er-28kLMQKc3rQyDsDdn-88">
          <mxGeometry relative="1" as="geometry">
            <mxPoint x="250" y="1220" as="targetPoint" />
          </mxGeometry>
        </mxCell>
        <mxCell id="Er-28kLMQKc3rQyDsDdn-111" style="edgeStyle=orthogonalEdgeStyle;rounded=0;orthogonalLoop=1;jettySize=auto;html=1;exitX=0;exitY=0.5;exitDx=0;exitDy=0;entryX=1;entryY=0.5;entryDx=0;entryDy=0;" edge="1" parent="1" source="Er-28kLMQKc3rQyDsDdn-106" target="Er-28kLMQKc3rQyDsDdn-109">
          <mxGeometry relative="1" as="geometry" />
        </mxCell>
        <mxCell id="Er-28kLMQKc3rQyDsDdn-106" value="" style="ellipse;whiteSpace=wrap;html=1;aspect=fixed;" vertex="1" parent="1">
          <mxGeometry x="400" y="1080" width="80" height="80" as="geometry" />
        </mxCell>
        <mxCell id="Er-28kLMQKc3rQyDsDdn-109" value="" style="ellipse;whiteSpace=wrap;html=1;aspect=fixed;" vertex="1" parent="1">
          <mxGeometry x="160" y="1080" width="80" height="80" as="geometry" />
        </mxCell>
        <mxCell id="Er-28kLMQKc3rQyDsDdn-112" style="rounded=0;orthogonalLoop=1;jettySize=auto;html=1;exitX=0;exitY=0.5;exitDx=0;exitDy=0;entryX=1;entryY=0.5;entryDx=0;entryDy=0;" edge="1" parent="1" source="Er-28kLMQKc3rQyDsDdn-92" target="Er-28kLMQKc3rQyDsDdn-109">
          <mxGeometry relative="1" as="geometry" />
        </mxCell>
        <mxCell id="Er-28kLMQKc3rQyDsDdn-113" style="rounded=0;orthogonalLoop=1;jettySize=auto;html=1;exitX=0;exitY=0.5;exitDx=0;exitDy=0;entryX=1;entryY=0.5;entryDx=0;entryDy=0;" edge="1" parent="1" source="Er-28kLMQKc3rQyDsDdn-115">
          <mxGeometry relative="1" as="geometry">
            <mxPoint x="480" y="1280" as="targetPoint" />
          </mxGeometry>
        </mxCell>
        <mxCell id="Er-28kLMQKc3rQyDsDdn-115" value="" style="ellipse;whiteSpace=wrap;html=1;aspect=fixed;" vertex="1" parent="1">
          <mxGeometry x="640" y="1240" width="80" height="80" as="geometry" />
        </mxCell>
        <mxCell id="Er-28kLMQKc3rQyDsDdn-116" style="rounded=0;orthogonalLoop=1;jettySize=auto;html=1;exitX=0;exitY=0.5;exitDx=0;exitDy=0;entryX=1;entryY=0.5;entryDx=0;entryDy=0;" edge="1" parent="1" source="Er-28kLMQKc3rQyDsDdn-118">
          <mxGeometry relative="1" as="geometry">
            <mxPoint x="480" y="1280" as="targetPoint" />
          </mxGeometry>
        </mxCell>
        <mxCell id="Er-28kLMQKc3rQyDsDdn-117" style="edgeStyle=orthogonalEdgeStyle;rounded=0;orthogonalLoop=1;jettySize=auto;html=1;entryX=1;entryY=0.5;entryDx=0;entryDy=0;" edge="1" parent="1" source="Er-28kLMQKc3rQyDsDdn-118">
          <mxGeometry relative="1" as="geometry">
            <mxPoint x="480" y="1120" as="targetPoint" />
          </mxGeometry>
        </mxCell>
        <mxCell id="Er-28kLMQKc3rQyDsDdn-118" value="" style="ellipse;whiteSpace=wrap;html=1;aspect=fixed;" vertex="1" parent="1">
          <mxGeometry x="640" y="1080" width="80" height="80" as="geometry" />
        </mxCell>
        <mxCell id="Er-28kLMQKc3rQyDsDdn-119" style="rounded=0;orthogonalLoop=1;jettySize=auto;html=1;exitX=0;exitY=0.5;exitDx=0;exitDy=0;entryX=1;entryY=0.5;entryDx=0;entryDy=0;" edge="1" parent="1" source="Er-28kLMQKc3rQyDsDdn-115">
          <mxGeometry relative="1" as="geometry">
            <mxPoint x="480" y="1120" as="targetPoint" />
          </mxGeometry>
        </mxCell>
        <mxCell id="Er-28kLMQKc3rQyDsDdn-120" value="W2" style="text;html=1;align=center;verticalAlign=middle;whiteSpace=wrap;rounded=0;" vertex="1" parent="1">
          <mxGeometry x="240" y="1160" width="45" height="30" as="geometry" />
        </mxCell>
        <mxCell id="Er-28kLMQKc3rQyDsDdn-121" value="W3" style="text;html=1;align=center;verticalAlign=middle;whiteSpace=wrap;rounded=0;" vertex="1" parent="1">
          <mxGeometry x="240" y="1210" width="45" height="30" as="geometry" />
        </mxCell>
        <mxCell id="Er-28kLMQKc3rQyDsDdn-123" value="W4" style="text;html=1;align=center;verticalAlign=middle;whiteSpace=wrap;rounded=0;" vertex="1" parent="1">
          <mxGeometry x="300" y="1280" width="45" height="30" as="geometry" />
        </mxCell>
        <mxCell id="Er-28kLMQKc3rQyDsDdn-124" value="W5" style="text;html=1;align=center;verticalAlign=middle;whiteSpace=wrap;rounded=0;" vertex="1" parent="1">
          <mxGeometry x="537.5" y="1090" width="45" height="30" as="geometry" />
        </mxCell>
        <mxCell id="Er-28kLMQKc3rQyDsDdn-125" value="W6" style="text;html=1;align=center;verticalAlign=middle;whiteSpace=wrap;rounded=0;" vertex="1" parent="1">
          <mxGeometry x="480" y="1160" width="45" height="30" as="geometry" />
        </mxCell>
        <mxCell id="Er-28kLMQKc3rQyDsDdn-126" value="W7" style="text;html=1;align=center;verticalAlign=middle;whiteSpace=wrap;rounded=0;" vertex="1" parent="1">
          <mxGeometry x="480" y="1200" width="45" height="30" as="geometry" />
        </mxCell>
        <mxCell id="Er-28kLMQKc3rQyDsDdn-127" value="W8" style="text;html=1;align=center;verticalAlign=middle;whiteSpace=wrap;rounded=0;" vertex="1" parent="1">
          <mxGeometry x="540" y="1280" width="45" height="30" as="geometry" />
        </mxCell>
        <mxCell id="Er-28kLMQKc3rQyDsDdn-128" style="edgeStyle=orthogonalEdgeStyle;rounded=0;orthogonalLoop=1;jettySize=auto;html=1;entryX=1;entryY=0.5;entryDx=0;entryDy=0;" edge="1" parent="1">
          <mxGeometry relative="1" as="geometry">
            <mxPoint x="720" y="1120" as="targetPoint" />
            <mxPoint x="800" y="1120" as="sourcePoint" />
          </mxGeometry>
        </mxCell>
        <mxCell id="Er-28kLMQKc3rQyDsDdn-129" style="edgeStyle=orthogonalEdgeStyle;rounded=0;orthogonalLoop=1;jettySize=auto;html=1;entryX=1;entryY=0.5;entryDx=0;entryDy=0;" edge="1" parent="1">
          <mxGeometry relative="1" as="geometry">
            <mxPoint x="720" y="1279.55" as="targetPoint" />
            <mxPoint x="800" y="1279.55" as="sourcePoint" />
          </mxGeometry>
        </mxCell>
        <mxCell id="Er-28kLMQKc3rQyDsDdn-130" style="edgeStyle=orthogonalEdgeStyle;rounded=0;orthogonalLoop=1;jettySize=auto;html=1;entryX=1;entryY=0.5;entryDx=0;entryDy=0;" edge="1" parent="1">
          <mxGeometry relative="1" as="geometry">
            <mxPoint x="80" y="1280" as="targetPoint" />
            <mxPoint x="160" y="1280" as="sourcePoint" />
            <Array as="points">
              <mxPoint x="110" y="1280.45" />
              <mxPoint x="110" y="1280.45" />
            </Array>
          </mxGeometry>
        </mxCell>
        <mxCell id="Er-28kLMQKc3rQyDsDdn-131" style="edgeStyle=orthogonalEdgeStyle;rounded=0;orthogonalLoop=1;jettySize=auto;html=1;entryX=1;entryY=0.5;entryDx=0;entryDy=0;" edge="1" parent="1">
          <mxGeometry relative="1" as="geometry">
            <mxPoint x="80" y="1120" as="targetPoint" />
            <mxPoint x="160" y="1120" as="sourcePoint" />
            <Array as="points">
              <mxPoint x="110" y="1120.45" />
              <mxPoint x="110" y="1120.45" />
            </Array>
          </mxGeometry>
        </mxCell>
        <mxCell id="Er-28kLMQKc3rQyDsDdn-132" value="δ1" style="text;html=1;align=center;verticalAlign=middle;whiteSpace=wrap;rounded=0;" vertex="1" parent="1">
          <mxGeometry x="90" y="1090" width="60" height="30" as="geometry" />
        </mxCell>
        <mxCell id="Er-28kLMQKc3rQyDsDdn-133" value="δ2" style="text;html=1;align=center;verticalAlign=middle;whiteSpace=wrap;rounded=0;" vertex="1" parent="1">
          <mxGeometry x="90" y="1250" width="60" height="30" as="geometry" />
        </mxCell>
        <mxCell id="Er-28kLMQKc3rQyDsDdn-134" value="δ6" style="text;html=1;align=center;verticalAlign=middle;whiteSpace=wrap;rounded=0;" vertex="1" parent="1">
          <mxGeometry x="730" y="1240" width="60" height="30" as="geometry" />
        </mxCell>
        <mxCell id="Er-28kLMQKc3rQyDsDdn-135" value="δ5" style="text;html=1;align=center;verticalAlign=middle;whiteSpace=wrap;rounded=0;" vertex="1" parent="1">
          <mxGeometry x="730" y="1080" width="60" height="30" as="geometry" />
        </mxCell>
        <mxCell id="Er-28kLMQKc3rQyDsDdn-136" value="δ4" style="text;html=1;align=center;verticalAlign=middle;whiteSpace=wrap;rounded=0;" vertex="1" parent="1">
          <mxGeometry x="410" y="1210" width="60" height="30" as="geometry" />
        </mxCell>
        <mxCell id="Er-28kLMQKc3rQyDsDdn-137" value="δ3" style="text;html=1;align=center;verticalAlign=middle;whiteSpace=wrap;rounded=0;" vertex="1" parent="1">
          <mxGeometry x="410" y="1050" width="60" height="30" as="geometry" />
        </mxCell>
        <mxCell id="Er-28kLMQKc3rQyDsDdn-138" value="" style="ellipse;whiteSpace=wrap;html=1;aspect=fixed;" vertex="1" parent="1">
          <mxGeometry x="160" y="1570" width="80" height="80" as="geometry" />
        </mxCell>
        <mxCell id="Er-28kLMQKc3rQyDsDdn-139" style="rounded=0;orthogonalLoop=1;jettySize=auto;html=1;exitX=0;exitY=0.5;exitDx=0;exitDy=0;entryX=1;entryY=0.5;entryDx=0;entryDy=0;" edge="1" parent="1" source="Er-28kLMQKc3rQyDsDdn-140" target="Er-28kLMQKc3rQyDsDdn-138">
          <mxGeometry relative="1" as="geometry" />
        </mxCell>
        <mxCell id="Er-28kLMQKc3rQyDsDdn-140" value="" style="ellipse;whiteSpace=wrap;html=1;aspect=fixed;fillColor=#33FFFF;" vertex="1" parent="1">
          <mxGeometry x="400" y="1570" width="80" height="80" as="geometry" />
        </mxCell>
        <mxCell id="Er-28kLMQKc3rQyDsDdn-141" value="W1" style="text;html=1;align=center;verticalAlign=middle;whiteSpace=wrap;rounded=0;" vertex="1" parent="1">
          <mxGeometry x="300" y="1420" width="45" height="30" as="geometry" />
        </mxCell>
        <mxCell id="Er-28kLMQKc3rQyDsDdn-142" style="rounded=0;orthogonalLoop=1;jettySize=auto;html=1;exitX=0;exitY=0.5;exitDx=0;exitDy=0;entryX=1;entryY=0.5;entryDx=0;entryDy=0;" edge="1" parent="1" source="Er-28kLMQKc3rQyDsDdn-144" target="Er-28kLMQKc3rQyDsDdn-138">
          <mxGeometry relative="1" as="geometry">
            <mxPoint x="250" y="1550" as="targetPoint" />
          </mxGeometry>
        </mxCell>
        <mxCell id="Er-28kLMQKc3rQyDsDdn-143" style="edgeStyle=orthogonalEdgeStyle;rounded=0;orthogonalLoop=1;jettySize=auto;html=1;exitX=0;exitY=0.5;exitDx=0;exitDy=0;entryX=1;entryY=0.5;entryDx=0;entryDy=0;" edge="1" parent="1" source="Er-28kLMQKc3rQyDsDdn-144" target="Er-28kLMQKc3rQyDsDdn-145">
          <mxGeometry relative="1" as="geometry" />
        </mxCell>
        <mxCell id="Er-28kLMQKc3rQyDsDdn-144" value="" style="ellipse;whiteSpace=wrap;html=1;aspect=fixed;fillColor=#33FFFF;" vertex="1" parent="1">
          <mxGeometry x="400" y="1410" width="80" height="80" as="geometry" />
        </mxCell>
        <mxCell id="Er-28kLMQKc3rQyDsDdn-145" value="" style="ellipse;whiteSpace=wrap;html=1;aspect=fixed;" vertex="1" parent="1">
          <mxGeometry x="160" y="1410" width="80" height="80" as="geometry" />
        </mxCell>
        <mxCell id="Er-28kLMQKc3rQyDsDdn-146" style="rounded=0;orthogonalLoop=1;jettySize=auto;html=1;exitX=0;exitY=0.5;exitDx=0;exitDy=0;entryX=1;entryY=0.5;entryDx=0;entryDy=0;" edge="1" parent="1" source="Er-28kLMQKc3rQyDsDdn-140" target="Er-28kLMQKc3rQyDsDdn-145">
          <mxGeometry relative="1" as="geometry" />
        </mxCell>
        <mxCell id="Er-28kLMQKc3rQyDsDdn-147" style="rounded=0;orthogonalLoop=1;jettySize=auto;html=1;exitX=0;exitY=0.5;exitDx=0;exitDy=0;entryX=1;entryY=0.5;entryDx=0;entryDy=0;" edge="1" parent="1" source="Er-28kLMQKc3rQyDsDdn-148">
          <mxGeometry relative="1" as="geometry">
            <mxPoint x="480" y="1610" as="targetPoint" />
          </mxGeometry>
        </mxCell>
        <mxCell id="Er-28kLMQKc3rQyDsDdn-148" value="" style="ellipse;whiteSpace=wrap;html=1;aspect=fixed;" vertex="1" parent="1">
          <mxGeometry x="640" y="1570" width="80" height="80" as="geometry" />
        </mxCell>
        <mxCell id="Er-28kLMQKc3rQyDsDdn-149" style="rounded=0;orthogonalLoop=1;jettySize=auto;html=1;exitX=0;exitY=0.5;exitDx=0;exitDy=0;entryX=1;entryY=0.5;entryDx=0;entryDy=0;" edge="1" parent="1" source="Er-28kLMQKc3rQyDsDdn-151">
          <mxGeometry relative="1" as="geometry">
            <mxPoint x="480" y="1610" as="targetPoint" />
          </mxGeometry>
        </mxCell>
        <mxCell id="Er-28kLMQKc3rQyDsDdn-150" style="edgeStyle=orthogonalEdgeStyle;rounded=0;orthogonalLoop=1;jettySize=auto;html=1;entryX=1;entryY=0.5;entryDx=0;entryDy=0;" edge="1" parent="1" source="Er-28kLMQKc3rQyDsDdn-151">
          <mxGeometry relative="1" as="geometry">
            <mxPoint x="480" y="1450" as="targetPoint" />
          </mxGeometry>
        </mxCell>
        <mxCell id="Er-28kLMQKc3rQyDsDdn-151" value="" style="ellipse;whiteSpace=wrap;html=1;aspect=fixed;" vertex="1" parent="1">
          <mxGeometry x="640" y="1410" width="80" height="80" as="geometry" />
        </mxCell>
        <mxCell id="Er-28kLMQKc3rQyDsDdn-152" style="rounded=0;orthogonalLoop=1;jettySize=auto;html=1;exitX=0;exitY=0.5;exitDx=0;exitDy=0;entryX=1;entryY=0.5;entryDx=0;entryDy=0;" edge="1" parent="1" source="Er-28kLMQKc3rQyDsDdn-148">
          <mxGeometry relative="1" as="geometry">
            <mxPoint x="480" y="1450" as="targetPoint" />
          </mxGeometry>
        </mxCell>
        <mxCell id="Er-28kLMQKc3rQyDsDdn-153" value="W2" style="text;html=1;align=center;verticalAlign=middle;whiteSpace=wrap;rounded=0;" vertex="1" parent="1">
          <mxGeometry x="240" y="1490" width="45" height="30" as="geometry" />
        </mxCell>
        <mxCell id="Er-28kLMQKc3rQyDsDdn-154" value="W3" style="text;html=1;align=center;verticalAlign=middle;whiteSpace=wrap;rounded=0;" vertex="1" parent="1">
          <mxGeometry x="240" y="1540" width="45" height="30" as="geometry" />
        </mxCell>
        <mxCell id="Er-28kLMQKc3rQyDsDdn-155" value="W4" style="text;html=1;align=center;verticalAlign=middle;whiteSpace=wrap;rounded=0;" vertex="1" parent="1">
          <mxGeometry x="300" y="1610" width="45" height="30" as="geometry" />
        </mxCell>
        <mxCell id="Er-28kLMQKc3rQyDsDdn-156" value="W5" style="text;html=1;align=center;verticalAlign=middle;whiteSpace=wrap;rounded=0;" vertex="1" parent="1">
          <mxGeometry x="537.5" y="1420" width="45" height="30" as="geometry" />
        </mxCell>
        <mxCell id="Er-28kLMQKc3rQyDsDdn-157" value="W6" style="text;html=1;align=center;verticalAlign=middle;whiteSpace=wrap;rounded=0;" vertex="1" parent="1">
          <mxGeometry x="480" y="1490" width="45" height="30" as="geometry" />
        </mxCell>
        <mxCell id="Er-28kLMQKc3rQyDsDdn-158" value="W7" style="text;html=1;align=center;verticalAlign=middle;whiteSpace=wrap;rounded=0;" vertex="1" parent="1">
          <mxGeometry x="480" y="1530" width="45" height="30" as="geometry" />
        </mxCell>
        <mxCell id="Er-28kLMQKc3rQyDsDdn-159" value="W8" style="text;html=1;align=center;verticalAlign=middle;whiteSpace=wrap;rounded=0;" vertex="1" parent="1">
          <mxGeometry x="540" y="1610" width="45" height="30" as="geometry" />
        </mxCell>
        <mxCell id="Er-28kLMQKc3rQyDsDdn-160" style="edgeStyle=orthogonalEdgeStyle;rounded=0;orthogonalLoop=1;jettySize=auto;html=1;entryX=1;entryY=0.5;entryDx=0;entryDy=0;" edge="1" parent="1">
          <mxGeometry relative="1" as="geometry">
            <mxPoint x="720" y="1450" as="targetPoint" />
            <mxPoint x="800" y="1450" as="sourcePoint" />
          </mxGeometry>
        </mxCell>
        <mxCell id="Er-28kLMQKc3rQyDsDdn-161" style="edgeStyle=orthogonalEdgeStyle;rounded=0;orthogonalLoop=1;jettySize=auto;html=1;entryX=1;entryY=0.5;entryDx=0;entryDy=0;" edge="1" parent="1">
          <mxGeometry relative="1" as="geometry">
            <mxPoint x="720" y="1609.55" as="targetPoint" />
            <mxPoint x="800" y="1609.55" as="sourcePoint" />
          </mxGeometry>
        </mxCell>
        <mxCell id="Er-28kLMQKc3rQyDsDdn-162" style="edgeStyle=orthogonalEdgeStyle;rounded=0;orthogonalLoop=1;jettySize=auto;html=1;entryX=1;entryY=0.5;entryDx=0;entryDy=0;" edge="1" parent="1">
          <mxGeometry relative="1" as="geometry">
            <mxPoint x="80" y="1610" as="targetPoint" />
            <mxPoint x="160" y="1610" as="sourcePoint" />
            <Array as="points">
              <mxPoint x="110" y="1610.45" />
              <mxPoint x="110" y="1610.45" />
            </Array>
          </mxGeometry>
        </mxCell>
        <mxCell id="Er-28kLMQKc3rQyDsDdn-163" style="edgeStyle=orthogonalEdgeStyle;rounded=0;orthogonalLoop=1;jettySize=auto;html=1;entryX=1;entryY=0.5;entryDx=0;entryDy=0;" edge="1" parent="1">
          <mxGeometry relative="1" as="geometry">
            <mxPoint x="80" y="1450" as="targetPoint" />
            <mxPoint x="160" y="1450" as="sourcePoint" />
            <Array as="points">
              <mxPoint x="110" y="1450.45" />
              <mxPoint x="110" y="1450.45" />
            </Array>
          </mxGeometry>
        </mxCell>
        <mxCell id="Er-28kLMQKc3rQyDsDdn-164" value="δ1" style="text;html=1;align=center;verticalAlign=middle;whiteSpace=wrap;rounded=0;" vertex="1" parent="1">
          <mxGeometry x="90" y="1420" width="60" height="30" as="geometry" />
        </mxCell>
        <mxCell id="Er-28kLMQKc3rQyDsDdn-165" value="δ2" style="text;html=1;align=center;verticalAlign=middle;whiteSpace=wrap;rounded=0;" vertex="1" parent="1">
          <mxGeometry x="90" y="1580" width="60" height="30" as="geometry" />
        </mxCell>
        <mxCell id="Er-28kLMQKc3rQyDsDdn-166" value="δ6" style="text;html=1;align=center;verticalAlign=middle;whiteSpace=wrap;rounded=0;" vertex="1" parent="1">
          <mxGeometry x="730" y="1570" width="60" height="30" as="geometry" />
        </mxCell>
        <mxCell id="Er-28kLMQKc3rQyDsDdn-167" value="δ5" style="text;html=1;align=center;verticalAlign=middle;whiteSpace=wrap;rounded=0;" vertex="1" parent="1">
          <mxGeometry x="730" y="1410" width="60" height="30" as="geometry" />
        </mxCell>
        <mxCell id="Er-28kLMQKc3rQyDsDdn-168" value="δ4" style="text;html=1;align=center;verticalAlign=middle;whiteSpace=wrap;rounded=0;" vertex="1" parent="1">
          <mxGeometry x="410" y="1540" width="60" height="30" as="geometry" />
        </mxCell>
        <mxCell id="Er-28kLMQKc3rQyDsDdn-169" value="δ3" style="text;html=1;align=center;verticalAlign=middle;whiteSpace=wrap;rounded=0;" vertex="1" parent="1">
          <mxGeometry x="410" y="1380" width="60" height="30" as="geometry" />
        </mxCell>
        <mxCell id="Er-28kLMQKc3rQyDsDdn-170" value="" style="ellipse;whiteSpace=wrap;html=1;aspect=fixed;" vertex="1" parent="1">
          <mxGeometry x="160" y="1890" width="80" height="80" as="geometry" />
        </mxCell>
        <mxCell id="Er-28kLMQKc3rQyDsDdn-177" value="" style="ellipse;whiteSpace=wrap;html=1;aspect=fixed;" vertex="1" parent="1">
          <mxGeometry x="160" y="1730" width="80" height="80" as="geometry" />
        </mxCell>
        <mxCell id="Er-28kLMQKc3rQyDsDdn-179" style="rounded=0;orthogonalLoop=1;jettySize=auto;html=1;exitX=0;exitY=0.5;exitDx=0;exitDy=0;" edge="1" parent="1" source="Er-28kLMQKc3rQyDsDdn-180" target="Er-28kLMQKc3rQyDsDdn-170">
          <mxGeometry relative="1" as="geometry">
            <mxPoint x="480" y="1930" as="targetPoint" />
          </mxGeometry>
        </mxCell>
        <mxCell id="Er-28kLMQKc3rQyDsDdn-202" style="rounded=0;orthogonalLoop=1;jettySize=auto;html=1;exitX=0;exitY=0.5;exitDx=0;exitDy=0;entryX=1;entryY=0.5;entryDx=0;entryDy=0;" edge="1" parent="1" source="Er-28kLMQKc3rQyDsDdn-180" target="Er-28kLMQKc3rQyDsDdn-177">
          <mxGeometry relative="1" as="geometry" />
        </mxCell>
        <mxCell id="Er-28kLMQKc3rQyDsDdn-180" value="" style="ellipse;whiteSpace=wrap;html=1;aspect=fixed;" vertex="1" parent="1">
          <mxGeometry x="640" y="1890" width="80" height="80" as="geometry" />
        </mxCell>
        <mxCell id="Er-28kLMQKc3rQyDsDdn-182" style="edgeStyle=orthogonalEdgeStyle;rounded=0;orthogonalLoop=1;jettySize=auto;html=1;entryX=1;entryY=0.5;entryDx=0;entryDy=0;" edge="1" parent="1" source="Er-28kLMQKc3rQyDsDdn-183" target="Er-28kLMQKc3rQyDsDdn-177">
          <mxGeometry relative="1" as="geometry">
            <mxPoint x="480" y="1770" as="targetPoint" />
          </mxGeometry>
        </mxCell>
        <mxCell id="Er-28kLMQKc3rQyDsDdn-203" style="rounded=0;orthogonalLoop=1;jettySize=auto;html=1;exitX=0;exitY=0.5;exitDx=0;exitDy=0;" edge="1" parent="1" source="Er-28kLMQKc3rQyDsDdn-183">
          <mxGeometry relative="1" as="geometry">
            <mxPoint x="240" y="1930" as="targetPoint" />
          </mxGeometry>
        </mxCell>
        <mxCell id="Er-28kLMQKc3rQyDsDdn-183" value="" style="ellipse;whiteSpace=wrap;html=1;aspect=fixed;" vertex="1" parent="1">
          <mxGeometry x="640" y="1730" width="80" height="80" as="geometry" />
        </mxCell>
        <mxCell id="Er-28kLMQKc3rQyDsDdn-188" value="W1&#39;" style="text;html=1;align=center;verticalAlign=middle;whiteSpace=wrap;rounded=0;" vertex="1" parent="1">
          <mxGeometry x="435" y="1740" width="45" height="30" as="geometry" />
        </mxCell>
        <mxCell id="Er-28kLMQKc3rQyDsDdn-192" style="edgeStyle=orthogonalEdgeStyle;rounded=0;orthogonalLoop=1;jettySize=auto;html=1;entryX=1;entryY=0.5;entryDx=0;entryDy=0;" edge="1" parent="1">
          <mxGeometry relative="1" as="geometry">
            <mxPoint x="720" y="1770" as="targetPoint" />
            <mxPoint x="800" y="1770" as="sourcePoint" />
          </mxGeometry>
        </mxCell>
        <mxCell id="Er-28kLMQKc3rQyDsDdn-193" style="edgeStyle=orthogonalEdgeStyle;rounded=0;orthogonalLoop=1;jettySize=auto;html=1;entryX=1;entryY=0.5;entryDx=0;entryDy=0;" edge="1" parent="1">
          <mxGeometry relative="1" as="geometry">
            <mxPoint x="720" y="1929.55" as="targetPoint" />
            <mxPoint x="800" y="1929.55" as="sourcePoint" />
          </mxGeometry>
        </mxCell>
        <mxCell id="Er-28kLMQKc3rQyDsDdn-194" style="edgeStyle=orthogonalEdgeStyle;rounded=0;orthogonalLoop=1;jettySize=auto;html=1;entryX=1;entryY=0.5;entryDx=0;entryDy=0;" edge="1" parent="1">
          <mxGeometry relative="1" as="geometry">
            <mxPoint x="80" y="1930" as="targetPoint" />
            <mxPoint x="160" y="1930" as="sourcePoint" />
            <Array as="points">
              <mxPoint x="110" y="1930.45" />
              <mxPoint x="110" y="1930.45" />
            </Array>
          </mxGeometry>
        </mxCell>
        <mxCell id="Er-28kLMQKc3rQyDsDdn-195" style="edgeStyle=orthogonalEdgeStyle;rounded=0;orthogonalLoop=1;jettySize=auto;html=1;entryX=1;entryY=0.5;entryDx=0;entryDy=0;" edge="1" parent="1">
          <mxGeometry relative="1" as="geometry">
            <mxPoint x="80" y="1770" as="targetPoint" />
            <mxPoint x="160" y="1770" as="sourcePoint" />
            <Array as="points">
              <mxPoint x="110" y="1770.45" />
              <mxPoint x="110" y="1770.45" />
            </Array>
          </mxGeometry>
        </mxCell>
        <mxCell id="Er-28kLMQKc3rQyDsDdn-196" value="δ1" style="text;html=1;align=center;verticalAlign=middle;whiteSpace=wrap;rounded=0;" vertex="1" parent="1">
          <mxGeometry x="90" y="1740" width="60" height="30" as="geometry" />
        </mxCell>
        <mxCell id="Er-28kLMQKc3rQyDsDdn-197" value="δ2" style="text;html=1;align=center;verticalAlign=middle;whiteSpace=wrap;rounded=0;" vertex="1" parent="1">
          <mxGeometry x="90" y="1900" width="60" height="30" as="geometry" />
        </mxCell>
        <mxCell id="Er-28kLMQKc3rQyDsDdn-198" value="δ6" style="text;html=1;align=center;verticalAlign=middle;whiteSpace=wrap;rounded=0;" vertex="1" parent="1">
          <mxGeometry x="730" y="1890" width="60" height="30" as="geometry" />
        </mxCell>
        <mxCell id="Er-28kLMQKc3rQyDsDdn-199" value="δ5" style="text;html=1;align=center;verticalAlign=middle;whiteSpace=wrap;rounded=0;" vertex="1" parent="1">
          <mxGeometry x="730" y="1730" width="60" height="30" as="geometry" />
        </mxCell>
        <mxCell id="Er-28kLMQKc3rQyDsDdn-204" value="W2&#39;" style="text;html=1;align=center;verticalAlign=middle;whiteSpace=wrap;rounded=0;" vertex="1" parent="1">
          <mxGeometry x="355" y="1790" width="45" height="30" as="geometry" />
        </mxCell>
        <mxCell id="Er-28kLMQKc3rQyDsDdn-205" value="W4&#39;" style="text;html=1;align=center;verticalAlign=middle;whiteSpace=wrap;rounded=0;" vertex="1" parent="1">
          <mxGeometry x="442.5" y="1940" width="45" height="30" as="geometry" />
        </mxCell>
        <mxCell id="Er-28kLMQKc3rQyDsDdn-206" value="W3&#39;" style="text;html=1;align=center;verticalAlign=middle;whiteSpace=wrap;rounded=0;" vertex="1" parent="1">
          <mxGeometry x="355" y="1840" width="45" height="30" as="geometry" />
        </mxCell>
        <mxCell id="Er-28kLMQKc3rQyDsDdn-215" style="rounded=0;orthogonalLoop=1;jettySize=auto;html=1;exitX=1;exitY=0.5;exitDx=0;exitDy=0;entryX=0;entryY=0.5;entryDx=0;entryDy=0;" edge="1" parent="1" source="Er-28kLMQKc3rQyDsDdn-207" target="Er-28kLMQKc3rQyDsDdn-209">
          <mxGeometry relative="1" as="geometry" />
        </mxCell>
        <mxCell id="Er-28kLMQKc3rQyDsDdn-207" value="" style="ellipse;whiteSpace=wrap;html=1;aspect=fixed;" vertex="1" parent="1">
          <mxGeometry x="160" y="2360" width="80" height="80" as="geometry" />
        </mxCell>
        <mxCell id="Er-28kLMQKc3rQyDsDdn-218" style="edgeStyle=none;rounded=0;orthogonalLoop=1;jettySize=auto;html=1;entryX=0;entryY=0.5;entryDx=0;entryDy=0;exitX=0.996;exitY=0.583;exitDx=0;exitDy=0;exitPerimeter=0;" edge="1" parent="1">
          <mxGeometry relative="1" as="geometry">
            <mxPoint x="239.67999999999984" y="2600.0000000000005" as="sourcePoint" />
            <mxPoint x="400" y="2793.36" as="targetPoint" />
            <Array as="points" />
          </mxGeometry>
        </mxCell>
        <mxCell id="Er-28kLMQKc3rQyDsDdn-219" style="edgeStyle=none;rounded=0;orthogonalLoop=1;jettySize=auto;html=1;exitX=1;exitY=0.5;exitDx=0;exitDy=0;entryX=0;entryY=0.5;entryDx=0;entryDy=0;" edge="1" parent="1" source="Er-28kLMQKc3rQyDsDdn-208" target="Er-28kLMQKc3rQyDsDdn-213">
          <mxGeometry relative="1" as="geometry">
            <mxPoint x="250" y="2610" as="targetPoint" />
          </mxGeometry>
        </mxCell>
        <mxCell id="Er-28kLMQKc3rQyDsDdn-220" style="edgeStyle=none;rounded=0;orthogonalLoop=1;jettySize=auto;html=1;exitX=1;exitY=0.5;exitDx=0;exitDy=0;entryX=0;entryY=0.5;entryDx=0;entryDy=0;" edge="1" parent="1" source="Er-28kLMQKc3rQyDsDdn-208" target="Er-28kLMQKc3rQyDsDdn-212">
          <mxGeometry relative="1" as="geometry" />
        </mxCell>
        <mxCell id="Er-28kLMQKc3rQyDsDdn-208" value="" style="ellipse;whiteSpace=wrap;html=1;aspect=fixed;" vertex="1" parent="1">
          <mxGeometry x="160" y="2560" width="80" height="80" as="geometry" />
        </mxCell>
        <mxCell id="Er-28kLMQKc3rQyDsDdn-224" style="edgeStyle=none;rounded=0;orthogonalLoop=1;jettySize=auto;html=1;exitX=1;exitY=0.5;exitDx=0;exitDy=0;entryX=0;entryY=0.5;entryDx=0;entryDy=0;" edge="1" parent="1" source="Er-28kLMQKc3rQyDsDdn-209" target="Er-28kLMQKc3rQyDsDdn-223">
          <mxGeometry relative="1" as="geometry" />
        </mxCell>
        <mxCell id="Er-28kLMQKc3rQyDsDdn-209" value="" style="ellipse;whiteSpace=wrap;html=1;aspect=fixed;" vertex="1" parent="1">
          <mxGeometry x="400" y="2160" width="80" height="80" as="geometry" />
        </mxCell>
        <mxCell id="Er-28kLMQKc3rQyDsDdn-225" style="edgeStyle=none;rounded=0;orthogonalLoop=1;jettySize=auto;html=1;exitX=1;exitY=0.5;exitDx=0;exitDy=0;entryX=0;entryY=0.5;entryDx=0;entryDy=0;" edge="1" parent="1" source="Er-28kLMQKc3rQyDsDdn-210" target="Er-28kLMQKc3rQyDsDdn-223">
          <mxGeometry relative="1" as="geometry" />
        </mxCell>
        <mxCell id="Er-28kLMQKc3rQyDsDdn-210" value="" style="ellipse;whiteSpace=wrap;html=1;aspect=fixed;fillColor=#33FFFF;" vertex="1" parent="1">
          <mxGeometry x="400" y="2280" width="80" height="80" as="geometry" />
        </mxCell>
        <mxCell id="Er-28kLMQKc3rQyDsDdn-226" style="edgeStyle=none;rounded=0;orthogonalLoop=1;jettySize=auto;html=1;exitX=1;exitY=0.5;exitDx=0;exitDy=0;" edge="1" parent="1" source="Er-28kLMQKc3rQyDsDdn-211">
          <mxGeometry relative="1" as="geometry">
            <mxPoint x="600" y="2480" as="targetPoint" />
          </mxGeometry>
        </mxCell>
        <mxCell id="Er-28kLMQKc3rQyDsDdn-211" value="" style="ellipse;whiteSpace=wrap;html=1;aspect=fixed;" vertex="1" parent="1">
          <mxGeometry x="400" y="2400" width="80" height="80" as="geometry" />
        </mxCell>
        <mxCell id="Er-28kLMQKc3rQyDsDdn-227" style="edgeStyle=none;rounded=0;orthogonalLoop=1;jettySize=auto;html=1;exitX=1;exitY=0.5;exitDx=0;exitDy=0;entryX=0;entryY=0.5;entryDx=0;entryDy=0;" edge="1" parent="1" source="Er-28kLMQKc3rQyDsDdn-212" target="Er-28kLMQKc3rQyDsDdn-223">
          <mxGeometry relative="1" as="geometry" />
        </mxCell>
        <mxCell id="Er-28kLMQKc3rQyDsDdn-212" value="" style="ellipse;whiteSpace=wrap;html=1;aspect=fixed;fillColor=#33FFFF;" vertex="1" parent="1">
          <mxGeometry x="400" y="2520" width="80" height="80" as="geometry" />
        </mxCell>
        <mxCell id="Er-28kLMQKc3rQyDsDdn-228" style="edgeStyle=none;rounded=0;orthogonalLoop=1;jettySize=auto;html=1;exitX=1;exitY=0.5;exitDx=0;exitDy=0;" edge="1" parent="1" source="Er-28kLMQKc3rQyDsDdn-213">
          <mxGeometry relative="1" as="geometry">
            <mxPoint x="600" y="2480" as="targetPoint" />
          </mxGeometry>
        </mxCell>
        <mxCell id="Er-28kLMQKc3rQyDsDdn-213" value="" style="ellipse;whiteSpace=wrap;html=1;aspect=fixed;fillColor=#33FFFF;" vertex="1" parent="1">
          <mxGeometry x="400" y="2640" width="80" height="80" as="geometry" />
        </mxCell>
        <mxCell id="Er-28kLMQKc3rQyDsDdn-214" value="" style="ellipse;whiteSpace=wrap;html=1;aspect=fixed;" vertex="1" parent="1">
          <mxGeometry x="400" y="2760" width="80" height="80" as="geometry" />
        </mxCell>
        <mxCell id="Er-28kLMQKc3rQyDsDdn-216" style="edgeStyle=none;rounded=0;orthogonalLoop=1;jettySize=auto;html=1;entryX=0;entryY=0.625;entryDx=0;entryDy=0;entryPerimeter=0;" edge="1" parent="1" target="Er-28kLMQKc3rQyDsDdn-210">
          <mxGeometry relative="1" as="geometry">
            <mxPoint x="240" y="2400" as="sourcePoint" />
          </mxGeometry>
        </mxCell>
        <mxCell id="Er-28kLMQKc3rQyDsDdn-217" style="edgeStyle=none;rounded=0;orthogonalLoop=1;jettySize=auto;html=1;exitX=1;exitY=0.5;exitDx=0;exitDy=0;entryX=0.076;entryY=0.703;entryDx=0;entryDy=0;entryPerimeter=0;" edge="1" parent="1" source="Er-28kLMQKc3rQyDsDdn-207" target="Er-28kLMQKc3rQyDsDdn-211">
          <mxGeometry relative="1" as="geometry">
            <mxPoint x="400" y="2449" as="targetPoint" />
          </mxGeometry>
        </mxCell>
        <mxCell id="Er-28kLMQKc3rQyDsDdn-221" style="edgeStyle=none;rounded=0;orthogonalLoop=1;jettySize=auto;html=1;exitX=1;exitY=0.5;exitDx=0;exitDy=0;entryX=0.056;entryY=0.643;entryDx=0;entryDy=0;entryPerimeter=0;" edge="1" parent="1" source="Er-28kLMQKc3rQyDsDdn-208" target="Er-28kLMQKc3rQyDsDdn-211">
          <mxGeometry relative="1" as="geometry" />
        </mxCell>
        <mxCell id="Er-28kLMQKc3rQyDsDdn-222" style="edgeStyle=none;rounded=0;orthogonalLoop=1;jettySize=auto;html=1;exitX=1;exitY=0.5;exitDx=0;exitDy=0;entryX=0.023;entryY=0.677;entryDx=0;entryDy=0;entryPerimeter=0;" edge="1" parent="1" source="Er-28kLMQKc3rQyDsDdn-208" target="Er-28kLMQKc3rQyDsDdn-210">
          <mxGeometry relative="1" as="geometry" />
        </mxCell>
        <mxCell id="Er-28kLMQKc3rQyDsDdn-223" value="" style="ellipse;whiteSpace=wrap;html=1;aspect=fixed;" vertex="1" parent="1">
          <mxGeometry x="600" y="2440" width="80" height="80" as="geometry" />
        </mxCell>
        <mxCell id="Er-28kLMQKc3rQyDsDdn-229" style="edgeStyle=none;rounded=0;orthogonalLoop=1;jettySize=auto;html=1;exitX=1;exitY=0.5;exitDx=0;exitDy=0;entryX=-0.011;entryY=0.57;entryDx=0;entryDy=0;entryPerimeter=0;" edge="1" parent="1" source="Er-28kLMQKc3rQyDsDdn-214" target="Er-28kLMQKc3rQyDsDdn-223">
          <mxGeometry relative="1" as="geometry" />
        </mxCell>
        <mxCell id="Er-28kLMQKc3rQyDsDdn-231" style="rounded=0;orthogonalLoop=1;jettySize=auto;html=1;exitX=1;exitY=0.5;exitDx=0;exitDy=0;entryX=0;entryY=0.5;entryDx=0;entryDy=0;" edge="1" parent="1" source="Er-28kLMQKc3rQyDsDdn-232" target="Er-28kLMQKc3rQyDsDdn-238">
          <mxGeometry relative="1" as="geometry" />
        </mxCell>
        <mxCell id="Er-28kLMQKc3rQyDsDdn-232" value="" style="ellipse;whiteSpace=wrap;html=1;aspect=fixed;" vertex="1" parent="1">
          <mxGeometry x="760" y="2370" width="80" height="80" as="geometry" />
        </mxCell>
        <mxCell id="Er-28kLMQKc3rQyDsDdn-233" style="edgeStyle=none;rounded=0;orthogonalLoop=1;jettySize=auto;html=1;entryX=0;entryY=0.5;entryDx=0;entryDy=0;exitX=0.996;exitY=0.583;exitDx=0;exitDy=0;exitPerimeter=0;" edge="1" parent="1">
          <mxGeometry relative="1" as="geometry">
            <mxPoint x="839.6799999999998" y="2610.0000000000005" as="sourcePoint" />
            <mxPoint x="1000" y="2803.36" as="targetPoint" />
            <Array as="points" />
          </mxGeometry>
        </mxCell>
        <mxCell id="Er-28kLMQKc3rQyDsDdn-234" style="edgeStyle=none;rounded=0;orthogonalLoop=1;jettySize=auto;html=1;exitX=1;exitY=0.5;exitDx=0;exitDy=0;" edge="1" parent="1" source="Er-28kLMQKc3rQyDsDdn-236">
          <mxGeometry relative="1" as="geometry">
            <mxPoint x="1080" y="2690" as="targetPoint" />
          </mxGeometry>
        </mxCell>
        <mxCell id="Er-28kLMQKc3rQyDsDdn-235" style="edgeStyle=none;rounded=0;orthogonalLoop=1;jettySize=auto;html=1;exitX=1;exitY=0.5;exitDx=0;exitDy=0;" edge="1" parent="1" source="Er-28kLMQKc3rQyDsDdn-236">
          <mxGeometry relative="1" as="geometry">
            <mxPoint x="1080" y="2570" as="targetPoint" />
          </mxGeometry>
        </mxCell>
        <mxCell id="Er-28kLMQKc3rQyDsDdn-236" value="" style="ellipse;whiteSpace=wrap;html=1;aspect=fixed;" vertex="1" parent="1">
          <mxGeometry x="760" y="2570" width="80" height="80" as="geometry" />
        </mxCell>
        <mxCell id="Er-28kLMQKc3rQyDsDdn-237" style="edgeStyle=none;rounded=0;orthogonalLoop=1;jettySize=auto;html=1;exitX=1;exitY=0.5;exitDx=0;exitDy=0;entryX=0;entryY=0.5;entryDx=0;entryDy=0;" edge="1" parent="1" source="Er-28kLMQKc3rQyDsDdn-238" target="Er-28kLMQKc3rQyDsDdn-252">
          <mxGeometry relative="1" as="geometry" />
        </mxCell>
        <mxCell id="Er-28kLMQKc3rQyDsDdn-238" value="" style="ellipse;whiteSpace=wrap;html=1;aspect=fixed;" vertex="1" parent="1">
          <mxGeometry x="1000" y="2170" width="80" height="80" as="geometry" />
        </mxCell>
        <mxCell id="Er-28kLMQKc3rQyDsDdn-239" style="edgeStyle=none;rounded=0;orthogonalLoop=1;jettySize=auto;html=1;exitX=1;exitY=0.5;exitDx=0;exitDy=0;entryX=0;entryY=0.5;entryDx=0;entryDy=0;" edge="1" parent="1" target="Er-28kLMQKc3rQyDsDdn-252">
          <mxGeometry relative="1" as="geometry">
            <mxPoint x="1080" y="2330" as="sourcePoint" />
          </mxGeometry>
        </mxCell>
        <mxCell id="Er-28kLMQKc3rQyDsDdn-241" style="edgeStyle=none;rounded=0;orthogonalLoop=1;jettySize=auto;html=1;exitX=1;exitY=0.5;exitDx=0;exitDy=0;" edge="1" parent="1" source="Er-28kLMQKc3rQyDsDdn-242">
          <mxGeometry relative="1" as="geometry">
            <mxPoint x="1200" y="2490" as="targetPoint" />
          </mxGeometry>
        </mxCell>
        <mxCell id="Er-28kLMQKc3rQyDsDdn-242" value="" style="ellipse;whiteSpace=wrap;html=1;aspect=fixed;" vertex="1" parent="1">
          <mxGeometry x="990" y="2460" width="80" height="80" as="geometry" />
        </mxCell>
        <mxCell id="Er-28kLMQKc3rQyDsDdn-243" style="edgeStyle=none;rounded=0;orthogonalLoop=1;jettySize=auto;html=1;exitX=1;exitY=0.5;exitDx=0;exitDy=0;entryX=0;entryY=0.5;entryDx=0;entryDy=0;" edge="1" parent="1" target="Er-28kLMQKc3rQyDsDdn-252">
          <mxGeometry relative="1" as="geometry">
            <mxPoint x="1080" y="2570" as="sourcePoint" />
          </mxGeometry>
        </mxCell>
        <mxCell id="Er-28kLMQKc3rQyDsDdn-245" style="edgeStyle=none;rounded=0;orthogonalLoop=1;jettySize=auto;html=1;exitX=1;exitY=0.5;exitDx=0;exitDy=0;" edge="1" parent="1">
          <mxGeometry relative="1" as="geometry">
            <mxPoint x="1200" y="2490" as="targetPoint" />
            <mxPoint x="1080" y="2690" as="sourcePoint" />
          </mxGeometry>
        </mxCell>
        <mxCell id="Er-28kLMQKc3rQyDsDdn-247" value="" style="ellipse;whiteSpace=wrap;html=1;aspect=fixed;" vertex="1" parent="1">
          <mxGeometry x="1000" y="2770" width="80" height="80" as="geometry" />
        </mxCell>
        <mxCell id="Er-28kLMQKc3rQyDsDdn-248" style="edgeStyle=none;rounded=0;orthogonalLoop=1;jettySize=auto;html=1;" edge="1" parent="1">
          <mxGeometry relative="1" as="geometry">
            <mxPoint x="840" y="2410" as="sourcePoint" />
            <mxPoint x="1080" y="2330" as="targetPoint" />
          </mxGeometry>
        </mxCell>
        <mxCell id="Er-28kLMQKc3rQyDsDdn-249" style="edgeStyle=none;rounded=0;orthogonalLoop=1;jettySize=auto;html=1;exitX=1;exitY=0.5;exitDx=0;exitDy=0;entryX=0.076;entryY=0.703;entryDx=0;entryDy=0;entryPerimeter=0;" edge="1" parent="1" source="Er-28kLMQKc3rQyDsDdn-232" target="Er-28kLMQKc3rQyDsDdn-242">
          <mxGeometry relative="1" as="geometry">
            <mxPoint x="1000" y="2459" as="targetPoint" />
          </mxGeometry>
        </mxCell>
        <mxCell id="Er-28kLMQKc3rQyDsDdn-250" style="edgeStyle=none;rounded=0;orthogonalLoop=1;jettySize=auto;html=1;exitX=1;exitY=0.5;exitDx=0;exitDy=0;entryX=0.056;entryY=0.643;entryDx=0;entryDy=0;entryPerimeter=0;" edge="1" parent="1" source="Er-28kLMQKc3rQyDsDdn-236" target="Er-28kLMQKc3rQyDsDdn-242">
          <mxGeometry relative="1" as="geometry" />
        </mxCell>
        <mxCell id="Er-28kLMQKc3rQyDsDdn-251" style="edgeStyle=none;rounded=0;orthogonalLoop=1;jettySize=auto;html=1;exitX=1;exitY=0.5;exitDx=0;exitDy=0;entryX=0.023;entryY=0.677;entryDx=0;entryDy=0;entryPerimeter=0;" edge="1" parent="1" source="Er-28kLMQKc3rQyDsDdn-236">
          <mxGeometry relative="1" as="geometry">
            <mxPoint x="918.16" y="2600" as="sourcePoint" />
            <mxPoint x="1080.0000000000002" y="2334.16" as="targetPoint" />
          </mxGeometry>
        </mxCell>
        <mxCell id="Er-28kLMQKc3rQyDsDdn-252" value="" style="ellipse;whiteSpace=wrap;html=1;aspect=fixed;" vertex="1" parent="1">
          <mxGeometry x="1200" y="2450" width="80" height="80" as="geometry" />
        </mxCell>
        <mxCell id="Er-28kLMQKc3rQyDsDdn-253" style="edgeStyle=none;rounded=0;orthogonalLoop=1;jettySize=auto;html=1;exitX=1;exitY=0.5;exitDx=0;exitDy=0;entryX=-0.011;entryY=0.57;entryDx=0;entryDy=0;entryPerimeter=0;" edge="1" parent="1" source="Er-28kLMQKc3rQyDsDdn-247" target="Er-28kLMQKc3rQyDsDdn-252">
          <mxGeometry relative="1" as="geometry" />
        </mxCell>
        <mxCell id="Er-28kLMQKc3rQyDsDdn-300" style="edgeStyle=none;rounded=0;orthogonalLoop=1;jettySize=auto;html=1;exitX=0;exitY=0.5;exitDx=0;exitDy=0;entryX=1;entryY=0.5;entryDx=0;entryDy=0;" edge="1" parent="1" source="Er-28kLMQKc3rQyDsDdn-262" target="Er-28kLMQKc3rQyDsDdn-294">
          <mxGeometry relative="1" as="geometry" />
        </mxCell>
        <mxCell id="Er-28kLMQKc3rQyDsDdn-262" value="" style="ellipse;whiteSpace=wrap;html=1;aspect=fixed;fillColor=#33FFFF;" vertex="1" parent="1">
          <mxGeometry x="240" y="3160" width="80" height="80" as="geometry" />
        </mxCell>
        <mxCell id="Er-28kLMQKc3rQyDsDdn-263" style="rounded=0;orthogonalLoop=1;jettySize=auto;html=1;exitX=0;exitY=0.5;exitDx=0;exitDy=0;entryX=1;entryY=0.5;entryDx=0;entryDy=0;" edge="1" parent="1" source="Er-28kLMQKc3rQyDsDdn-264" target="Er-28kLMQKc3rQyDsDdn-262">
          <mxGeometry relative="1" as="geometry" />
        </mxCell>
        <mxCell id="Er-28kLMQKc3rQyDsDdn-264" value="" style="ellipse;whiteSpace=wrap;html=1;aspect=fixed;fillColor=#33FFFF;" vertex="1" parent="1">
          <mxGeometry x="480" y="3160" width="80" height="80" as="geometry" />
        </mxCell>
        <mxCell id="Er-28kLMQKc3rQyDsDdn-266" style="rounded=0;orthogonalLoop=1;jettySize=auto;html=1;exitX=0;exitY=0.5;exitDx=0;exitDy=0;entryX=1;entryY=0.5;entryDx=0;entryDy=0;" edge="1" parent="1" source="Er-28kLMQKc3rQyDsDdn-268" target="Er-28kLMQKc3rQyDsDdn-262">
          <mxGeometry relative="1" as="geometry">
            <mxPoint x="330" y="3140" as="targetPoint" />
          </mxGeometry>
        </mxCell>
        <mxCell id="Er-28kLMQKc3rQyDsDdn-267" style="edgeStyle=orthogonalEdgeStyle;rounded=0;orthogonalLoop=1;jettySize=auto;html=1;exitX=0;exitY=0.5;exitDx=0;exitDy=0;entryX=1;entryY=0.5;entryDx=0;entryDy=0;" edge="1" parent="1" source="Er-28kLMQKc3rQyDsDdn-268" target="Er-28kLMQKc3rQyDsDdn-269">
          <mxGeometry relative="1" as="geometry" />
        </mxCell>
        <mxCell id="Er-28kLMQKc3rQyDsDdn-268" value="" style="ellipse;whiteSpace=wrap;html=1;aspect=fixed;" vertex="1" parent="1">
          <mxGeometry x="480" y="3000" width="80" height="80" as="geometry" />
        </mxCell>
        <mxCell id="Er-28kLMQKc3rQyDsDdn-299" style="edgeStyle=none;rounded=0;orthogonalLoop=1;jettySize=auto;html=1;exitX=0;exitY=0.5;exitDx=0;exitDy=0;entryX=1;entryY=0.5;entryDx=0;entryDy=0;" edge="1" parent="1" source="Er-28kLMQKc3rQyDsDdn-269" target="Er-28kLMQKc3rQyDsDdn-294">
          <mxGeometry relative="1" as="geometry" />
        </mxCell>
        <mxCell id="Er-28kLMQKc3rQyDsDdn-269" value="" style="ellipse;whiteSpace=wrap;html=1;aspect=fixed;" vertex="1" parent="1">
          <mxGeometry x="240" y="3000" width="80" height="80" as="geometry" />
        </mxCell>
        <mxCell id="Er-28kLMQKc3rQyDsDdn-270" style="rounded=0;orthogonalLoop=1;jettySize=auto;html=1;exitX=0;exitY=0.5;exitDx=0;exitDy=0;entryX=1;entryY=0.5;entryDx=0;entryDy=0;" edge="1" parent="1" source="Er-28kLMQKc3rQyDsDdn-264" target="Er-28kLMQKc3rQyDsDdn-269">
          <mxGeometry relative="1" as="geometry" />
        </mxCell>
        <mxCell id="Er-28kLMQKc3rQyDsDdn-271" style="rounded=0;orthogonalLoop=1;jettySize=auto;html=1;exitX=0;exitY=0.5;exitDx=0;exitDy=0;entryX=1;entryY=0.5;entryDx=0;entryDy=0;" edge="1" parent="1" source="Er-28kLMQKc3rQyDsDdn-272">
          <mxGeometry relative="1" as="geometry">
            <mxPoint x="560" y="3200" as="targetPoint" />
          </mxGeometry>
        </mxCell>
        <mxCell id="Er-28kLMQKc3rQyDsDdn-272" value="" style="ellipse;whiteSpace=wrap;html=1;aspect=fixed;fillColor=#33FFFF;" vertex="1" parent="1">
          <mxGeometry x="720" y="3160" width="80" height="80" as="geometry" />
        </mxCell>
        <mxCell id="Er-28kLMQKc3rQyDsDdn-273" style="rounded=0;orthogonalLoop=1;jettySize=auto;html=1;exitX=0;exitY=0.5;exitDx=0;exitDy=0;entryX=1;entryY=0.5;entryDx=0;entryDy=0;" edge="1" parent="1" source="Er-28kLMQKc3rQyDsDdn-275">
          <mxGeometry relative="1" as="geometry">
            <mxPoint x="560" y="3200" as="targetPoint" />
          </mxGeometry>
        </mxCell>
        <mxCell id="Er-28kLMQKc3rQyDsDdn-274" style="edgeStyle=orthogonalEdgeStyle;rounded=0;orthogonalLoop=1;jettySize=auto;html=1;entryX=1;entryY=0.5;entryDx=0;entryDy=0;" edge="1" parent="1" source="Er-28kLMQKc3rQyDsDdn-275">
          <mxGeometry relative="1" as="geometry">
            <mxPoint x="560" y="3040" as="targetPoint" />
          </mxGeometry>
        </mxCell>
        <mxCell id="Er-28kLMQKc3rQyDsDdn-275" value="" style="ellipse;whiteSpace=wrap;html=1;aspect=fixed;" vertex="1" parent="1">
          <mxGeometry x="720" y="3000" width="80" height="80" as="geometry" />
        </mxCell>
        <mxCell id="Er-28kLMQKc3rQyDsDdn-276" style="rounded=0;orthogonalLoop=1;jettySize=auto;html=1;exitX=0;exitY=0.5;exitDx=0;exitDy=0;entryX=1;entryY=0.5;entryDx=0;entryDy=0;" edge="1" parent="1" source="Er-28kLMQKc3rQyDsDdn-272">
          <mxGeometry relative="1" as="geometry">
            <mxPoint x="560" y="3040" as="targetPoint" />
          </mxGeometry>
        </mxCell>
        <mxCell id="Er-28kLMQKc3rQyDsDdn-294" value="" style="ellipse;whiteSpace=wrap;html=1;aspect=fixed;" vertex="1" parent="1">
          <mxGeometry y="3080" width="80" height="80" as="geometry" />
        </mxCell>
        <mxCell id="Er-28kLMQKc3rQyDsDdn-296" style="edgeStyle=none;rounded=0;orthogonalLoop=1;jettySize=auto;html=1;exitX=0;exitY=0.5;exitDx=0;exitDy=0;entryX=1;entryY=0.5;entryDx=0;entryDy=0;" edge="1" parent="1" source="Er-28kLMQKc3rQyDsDdn-295" target="Er-28kLMQKc3rQyDsDdn-275">
          <mxGeometry relative="1" as="geometry" />
        </mxCell>
        <mxCell id="Er-28kLMQKc3rQyDsDdn-295" value="" style="ellipse;whiteSpace=wrap;html=1;aspect=fixed;" vertex="1" parent="1">
          <mxGeometry x="960" y="3150" width="80" height="80" as="geometry" />
        </mxCell>
        <mxCell id="Er-28kLMQKc3rQyDsDdn-297" style="edgeStyle=none;rounded=0;orthogonalLoop=1;jettySize=auto;html=1;exitX=0;exitY=0.5;exitDx=0;exitDy=0;entryX=1.042;entryY=0.386;entryDx=0;entryDy=0;entryPerimeter=0;" edge="1" parent="1" source="Er-28kLMQKc3rQyDsDdn-295" target="Er-28kLMQKc3rQyDsDdn-272">
          <mxGeometry relative="1" as="geometry" />
        </mxCell>
        <mxCell id="Er-28kLMQKc3rQyDsDdn-306" style="edgeStyle=orthogonalEdgeStyle;rounded=0;orthogonalLoop=1;jettySize=auto;html=1;exitX=0;exitY=0.5;exitDx=0;exitDy=0;entryX=1;entryY=0.5;entryDx=0;entryDy=0;" edge="1" parent="1" source="Er-28kLMQKc3rQyDsDdn-307" target="Er-28kLMQKc3rQyDsDdn-309">
          <mxGeometry relative="1" as="geometry" />
        </mxCell>
        <mxCell id="Er-28kLMQKc3rQyDsDdn-326" style="edgeStyle=none;rounded=0;orthogonalLoop=1;jettySize=auto;html=1;exitX=0.5;exitY=0;exitDx=0;exitDy=0;entryX=1;entryY=0.5;entryDx=0;entryDy=0;" edge="1" parent="1" source="Er-28kLMQKc3rQyDsDdn-307" target="Er-28kLMQKc3rQyDsDdn-317">
          <mxGeometry relative="1" as="geometry">
            <Array as="points">
              <mxPoint x="520" y="3340" />
              <mxPoint x="80" y="3340" />
            </Array>
          </mxGeometry>
        </mxCell>
        <mxCell id="Er-28kLMQKc3rQyDsDdn-307" value="" style="ellipse;whiteSpace=wrap;html=1;aspect=fixed;" vertex="1" parent="1">
          <mxGeometry x="480" y="3400" width="80" height="80" as="geometry" />
        </mxCell>
        <mxCell id="Er-28kLMQKc3rQyDsDdn-308" style="edgeStyle=none;rounded=0;orthogonalLoop=1;jettySize=auto;html=1;exitX=0;exitY=0.5;exitDx=0;exitDy=0;entryX=1;entryY=0.5;entryDx=0;entryDy=0;" edge="1" parent="1" source="Er-28kLMQKc3rQyDsDdn-309" target="Er-28kLMQKc3rQyDsDdn-317">
          <mxGeometry relative="1" as="geometry" />
        </mxCell>
        <mxCell id="Er-28kLMQKc3rQyDsDdn-309" value="" style="ellipse;whiteSpace=wrap;html=1;aspect=fixed;" vertex="1" parent="1">
          <mxGeometry x="240" y="3400" width="80" height="80" as="geometry" />
        </mxCell>
        <mxCell id="Er-28kLMQKc3rQyDsDdn-313" style="rounded=0;orthogonalLoop=1;jettySize=auto;html=1;exitX=0;exitY=0.5;exitDx=0;exitDy=0;" edge="1" parent="1" source="Er-28kLMQKc3rQyDsDdn-315" target="Er-28kLMQKc3rQyDsDdn-309">
          <mxGeometry relative="1" as="geometry">
            <mxPoint x="560" y="3600" as="targetPoint" />
            <Array as="points">
              <mxPoint x="720" y="3360" />
              <mxPoint x="280" y="3360" />
            </Array>
          </mxGeometry>
        </mxCell>
        <mxCell id="Er-28kLMQKc3rQyDsDdn-314" style="edgeStyle=orthogonalEdgeStyle;rounded=0;orthogonalLoop=1;jettySize=auto;html=1;entryX=1;entryY=0.5;entryDx=0;entryDy=0;" edge="1" parent="1" source="Er-28kLMQKc3rQyDsDdn-315">
          <mxGeometry relative="1" as="geometry">
            <mxPoint x="560" y="3440" as="targetPoint" />
          </mxGeometry>
        </mxCell>
        <mxCell id="Er-28kLMQKc3rQyDsDdn-324" style="edgeStyle=orthogonalEdgeStyle;rounded=0;orthogonalLoop=1;jettySize=auto;html=1;exitX=0.5;exitY=0;exitDx=0;exitDy=0;entryX=0.5;entryY=0;entryDx=0;entryDy=0;" edge="1" parent="1" source="Er-28kLMQKc3rQyDsDdn-315" target="Er-28kLMQKc3rQyDsDdn-317">
          <mxGeometry relative="1" as="geometry">
            <mxPoint x="40" y="3430" as="targetPoint" />
            <mxPoint x="760" y="3350" as="sourcePoint" />
            <Array as="points">
              <mxPoint x="760" y="3320" />
              <mxPoint x="40" y="3320" />
            </Array>
          </mxGeometry>
        </mxCell>
        <mxCell id="Er-28kLMQKc3rQyDsDdn-315" value="" style="ellipse;whiteSpace=wrap;html=1;aspect=fixed;" vertex="1" parent="1">
          <mxGeometry x="720" y="3400" width="80" height="80" as="geometry" />
        </mxCell>
        <mxCell id="Er-28kLMQKc3rQyDsDdn-317" value="" style="ellipse;whiteSpace=wrap;html=1;aspect=fixed;" vertex="1" parent="1">
          <mxGeometry y="3480" width="80" height="80" as="geometry" />
        </mxCell>
        <mxCell id="Er-28kLMQKc3rQyDsDdn-318" style="edgeStyle=none;rounded=0;orthogonalLoop=1;jettySize=auto;html=1;exitX=0;exitY=0.5;exitDx=0;exitDy=0;entryX=1;entryY=0.5;entryDx=0;entryDy=0;" edge="1" parent="1" source="Er-28kLMQKc3rQyDsDdn-319" target="Er-28kLMQKc3rQyDsDdn-315">
          <mxGeometry relative="1" as="geometry" />
        </mxCell>
        <mxCell id="Er-28kLMQKc3rQyDsDdn-322" style="edgeStyle=none;rounded=0;orthogonalLoop=1;jettySize=auto;html=1;exitX=0;exitY=0.5;exitDx=0;exitDy=0;entryX=0.5;entryY=1;entryDx=0;entryDy=0;" edge="1" parent="1" source="Er-28kLMQKc3rQyDsDdn-319" target="Er-28kLMQKc3rQyDsDdn-309">
          <mxGeometry relative="1" as="geometry" />
        </mxCell>
        <mxCell id="Er-28kLMQKc3rQyDsDdn-323" style="edgeStyle=none;rounded=0;orthogonalLoop=1;jettySize=auto;html=1;exitX=0;exitY=0.5;exitDx=0;exitDy=0;entryX=1;entryY=0.5;entryDx=0;entryDy=0;" edge="1" parent="1" source="Er-28kLMQKc3rQyDsDdn-319" target="Er-28kLMQKc3rQyDsDdn-317">
          <mxGeometry relative="1" as="geometry" />
        </mxCell>
        <mxCell id="Er-28kLMQKc3rQyDsDdn-319" value="" style="ellipse;whiteSpace=wrap;html=1;aspect=fixed;" vertex="1" parent="1">
          <mxGeometry x="950" y="3530" width="80" height="80" as="geometry" />
        </mxCell>
        <mxCell id="Er-28kLMQKc3rQyDsDdn-321" style="edgeStyle=none;rounded=0;orthogonalLoop=1;jettySize=auto;html=1;exitX=0;exitY=0.5;exitDx=0;exitDy=0;entryX=0.787;entryY=0.967;entryDx=0;entryDy=0;entryPerimeter=0;" edge="1" parent="1" source="Er-28kLMQKc3rQyDsDdn-319" target="Er-28kLMQKc3rQyDsDdn-307">
          <mxGeometry relative="1" as="geometry" />
        </mxCell>
        <mxCell id="Er-28kLMQKc3rQyDsDdn-327" value="" style="ellipse;whiteSpace=wrap;html=1;aspect=fixed;" vertex="1" parent="1">
          <mxGeometry x="160" y="3810" width="80" height="80" as="geometry" />
        </mxCell>
        <mxCell id="Er-28kLMQKc3rQyDsDdn-328" value="" style="ellipse;whiteSpace=wrap;html=1;aspect=fixed;" vertex="1" parent="1">
          <mxGeometry x="160" y="3970" width="80" height="80" as="geometry" />
        </mxCell>
        <mxCell id="Er-28kLMQKc3rQyDsDdn-329" value="" style="ellipse;whiteSpace=wrap;html=1;aspect=fixed;" vertex="1" parent="1">
          <mxGeometry x="160" y="4130" width="80" height="80" as="geometry" />
        </mxCell>
        <mxCell id="Er-28kLMQKc3rQyDsDdn-335" style="edgeStyle=none;rounded=0;orthogonalLoop=1;jettySize=auto;html=1;exitX=0;exitY=0.5;exitDx=0;exitDy=0;entryX=1;entryY=0.5;entryDx=0;entryDy=0;" edge="1" parent="1" source="Er-28kLMQKc3rQyDsDdn-330" target="Er-28kLMQKc3rQyDsDdn-327">
          <mxGeometry relative="1" as="geometry" />
        </mxCell>
        <mxCell id="Er-28kLMQKc3rQyDsDdn-336" style="edgeStyle=none;rounded=0;orthogonalLoop=1;jettySize=auto;html=1;exitX=0;exitY=0.5;exitDx=0;exitDy=0;entryX=1;entryY=0.5;entryDx=0;entryDy=0;" edge="1" parent="1" source="Er-28kLMQKc3rQyDsDdn-330" target="Er-28kLMQKc3rQyDsDdn-328">
          <mxGeometry relative="1" as="geometry" />
        </mxCell>
        <mxCell id="Er-28kLMQKc3rQyDsDdn-337" style="edgeStyle=none;rounded=0;orthogonalLoop=1;jettySize=auto;html=1;exitX=0;exitY=0.5;exitDx=0;exitDy=0;entryX=1;entryY=0.5;entryDx=0;entryDy=0;" edge="1" parent="1" source="Er-28kLMQKc3rQyDsDdn-330" target="Er-28kLMQKc3rQyDsDdn-329">
          <mxGeometry relative="1" as="geometry" />
        </mxCell>
        <mxCell id="Er-28kLMQKc3rQyDsDdn-330" value="" style="ellipse;whiteSpace=wrap;html=1;aspect=fixed;" vertex="1" parent="1">
          <mxGeometry x="640" y="3710" width="80" height="80" as="geometry" />
        </mxCell>
        <mxCell id="Er-28kLMQKc3rQyDsDdn-338" style="edgeStyle=none;rounded=0;orthogonalLoop=1;jettySize=auto;html=1;exitX=0;exitY=0.5;exitDx=0;exitDy=0;entryX=1;entryY=0.5;entryDx=0;entryDy=0;" edge="1" parent="1" source="Er-28kLMQKc3rQyDsDdn-331" target="Er-28kLMQKc3rQyDsDdn-327">
          <mxGeometry relative="1" as="geometry" />
        </mxCell>
        <mxCell id="Er-28kLMQKc3rQyDsDdn-339" style="edgeStyle=none;rounded=0;orthogonalLoop=1;jettySize=auto;html=1;exitX=0;exitY=0.5;exitDx=0;exitDy=0;entryX=1;entryY=0.5;entryDx=0;entryDy=0;" edge="1" parent="1" source="Er-28kLMQKc3rQyDsDdn-331" target="Er-28kLMQKc3rQyDsDdn-328">
          <mxGeometry relative="1" as="geometry" />
        </mxCell>
        <mxCell id="Er-28kLMQKc3rQyDsDdn-340" style="edgeStyle=none;rounded=0;orthogonalLoop=1;jettySize=auto;html=1;exitX=0;exitY=0.5;exitDx=0;exitDy=0;entryX=1;entryY=0.5;entryDx=0;entryDy=0;" edge="1" parent="1" source="Er-28kLMQKc3rQyDsDdn-331" target="Er-28kLMQKc3rQyDsDdn-329">
          <mxGeometry relative="1" as="geometry" />
        </mxCell>
        <mxCell id="Er-28kLMQKc3rQyDsDdn-331" value="" style="ellipse;whiteSpace=wrap;html=1;aspect=fixed;" vertex="1" parent="1">
          <mxGeometry x="640" y="3870" width="80" height="80" as="geometry" />
        </mxCell>
        <mxCell id="Er-28kLMQKc3rQyDsDdn-341" style="edgeStyle=none;rounded=0;orthogonalLoop=1;jettySize=auto;html=1;exitX=0;exitY=0.5;exitDx=0;exitDy=0;entryX=1;entryY=0.5;entryDx=0;entryDy=0;" edge="1" parent="1" source="Er-28kLMQKc3rQyDsDdn-332" target="Er-28kLMQKc3rQyDsDdn-327">
          <mxGeometry relative="1" as="geometry" />
        </mxCell>
        <mxCell id="Er-28kLMQKc3rQyDsDdn-342" style="edgeStyle=none;rounded=0;orthogonalLoop=1;jettySize=auto;html=1;exitX=0;exitY=0.5;exitDx=0;exitDy=0;entryX=1;entryY=0.5;entryDx=0;entryDy=0;" edge="1" parent="1" source="Er-28kLMQKc3rQyDsDdn-332" target="Er-28kLMQKc3rQyDsDdn-328">
          <mxGeometry relative="1" as="geometry" />
        </mxCell>
        <mxCell id="Er-28kLMQKc3rQyDsDdn-343" style="edgeStyle=none;rounded=0;orthogonalLoop=1;jettySize=auto;html=1;exitX=0;exitY=0.5;exitDx=0;exitDy=0;entryX=1;entryY=0.5;entryDx=0;entryDy=0;" edge="1" parent="1" source="Er-28kLMQKc3rQyDsDdn-332" target="Er-28kLMQKc3rQyDsDdn-329">
          <mxGeometry relative="1" as="geometry" />
        </mxCell>
        <mxCell id="Er-28kLMQKc3rQyDsDdn-332" value="" style="ellipse;whiteSpace=wrap;html=1;aspect=fixed;" vertex="1" parent="1">
          <mxGeometry x="640" y="4040" width="80" height="80" as="geometry" />
        </mxCell>
        <mxCell id="Er-28kLMQKc3rQyDsDdn-344" style="edgeStyle=none;rounded=0;orthogonalLoop=1;jettySize=auto;html=1;exitX=0;exitY=0.5;exitDx=0;exitDy=0;entryX=1;entryY=0.5;entryDx=0;entryDy=0;" edge="1" parent="1" source="Er-28kLMQKc3rQyDsDdn-333" target="Er-28kLMQKc3rQyDsDdn-327">
          <mxGeometry relative="1" as="geometry" />
        </mxCell>
        <mxCell id="Er-28kLMQKc3rQyDsDdn-345" style="edgeStyle=none;rounded=0;orthogonalLoop=1;jettySize=auto;html=1;exitX=0;exitY=0.5;exitDx=0;exitDy=0;entryX=1;entryY=0.5;entryDx=0;entryDy=0;" edge="1" parent="1" source="Er-28kLMQKc3rQyDsDdn-333" target="Er-28kLMQKc3rQyDsDdn-328">
          <mxGeometry relative="1" as="geometry" />
        </mxCell>
        <mxCell id="Er-28kLMQKc3rQyDsDdn-346" style="edgeStyle=none;rounded=0;orthogonalLoop=1;jettySize=auto;html=1;exitX=0;exitY=0.5;exitDx=0;exitDy=0;entryX=1;entryY=0.5;entryDx=0;entryDy=0;" edge="1" parent="1" source="Er-28kLMQKc3rQyDsDdn-333" target="Er-28kLMQKc3rQyDsDdn-329">
          <mxGeometry relative="1" as="geometry" />
        </mxCell>
        <mxCell id="Er-28kLMQKc3rQyDsDdn-333" value="" style="ellipse;whiteSpace=wrap;html=1;aspect=fixed;" vertex="1" parent="1">
          <mxGeometry x="640" y="4210" width="80" height="80" as="geometry" />
        </mxCell>
      </root>
    </mxGraphModel>
  </diagram>
</mxfile>
